<svg width="16" height="16" viewBox="0 0 16 16" fill="none" xmlns="http://www.w3.org/2000/svg">
<path d="M1.52668 8.46677L3.02668 9.96677C3.15133 10.0958 3.32215 10.1701 3.50156 10.1732C3.68097 10.1764 3.85427 10.1081 3.98334 9.98344C4.11241 9.85879 4.18668 9.68797 4.18981 9.50856C4.19293 9.32915 4.12466 9.15584 4.00001 9.02677L3.64001 8.66677H9.22667C9.40349 8.66677 9.57305 8.59653 9.69808 8.47151C9.8231 8.34649 9.89334 8.17692 9.89334 8.0001C9.89334 7.82329 9.8231 7.65372 9.69808 7.5287C9.57305 7.40368 9.40349 7.33344 9.22667 7.33344L3.60001 7.33344L3.96001 6.97344C4.0298 6.91367 4.08648 6.84013 4.12649 6.75742C4.16651 6.67471 4.18899 6.58462 4.19254 6.49281C4.19609 6.40099 4.18062 6.30944 4.1471 6.22389C4.11358 6.13834 4.06275 6.06064 3.99778 5.99567C3.93281 5.9307 3.85511 5.87986 3.76956 5.84635C3.68401 5.81283 3.59245 5.79736 3.50064 5.80091C3.40883 5.80445 3.31874 5.82694 3.23603 5.86695C3.15332 5.90697 3.07977 5.96365 3.02001 6.03344L1.53334 7.5201C1.47042 7.58164 1.4203 7.65502 1.38588 7.73602C1.35146 7.81703 1.33342 7.90404 1.3328 7.99205C1.33218 8.08006 1.349 8.16732 1.38227 8.2488C1.41554 8.33027 1.46462 8.40436 1.52668 8.46677Z" fill="#9E9E9E"/>
<path d="M10.56 7.99984C10.56 8.35346 10.4195 8.6926 10.1695 8.94265C9.91942 9.19269 9.58028 9.33317 9.22666 9.33317H5.05332V11.9998C5.05332 12.7071 5.33427 13.3854 5.83437 13.8855C6.33447 14.3856 7.01275 14.6665 7.71999 14.6665H12C12.7072 14.6665 13.3855 14.3856 13.8856 13.8855C14.3857 13.3854 14.6667 12.7071 14.6667 11.9998L14.6667 3.99984C14.6667 3.29259 14.3857 2.61432 13.8856 2.11422C13.3855 1.61412 12.7072 1.33317 12 1.33317H7.71999C7.3698 1.33317 7.02304 1.40215 6.6995 1.53616C6.37597 1.67017 6.08199 1.8666 5.83437 2.11422C5.58675 2.36184 5.39032 2.65581 5.25631 2.97935C5.1223 3.30288 5.05332 3.64965 5.05332 3.99984V6.6665H9.22666C9.58028 6.6665 9.91942 6.80698 10.1695 7.05703C10.4195 7.30708 10.56 7.64622 10.56 7.99984Z" fill="#9E9E9E"/>
</svg>
