<svg width="16" height="17" viewBox="0 0 16 17" fill="#9E9E9E" xmlns="http://www.w3.org/2000/svg">
<path fill-rule="evenodd" clip-rule="evenodd" d="M4.99999 4.78571C4.99999 3.99006 5.31606 3.22699 5.87867 2.66439C6.44128 2.10178 7.20434 1.78571 7.99999 1.78571C8.79564 1.78571 9.5587 2.10178 10.1213 2.66439C10.6839 3.22699 11 3.99006 11 4.78571C11 5.58136 10.6839 6.34442 10.1213 6.90703C9.5587 7.46964 8.79564 7.78571 7.99999 7.78571C7.20434 7.78571 6.44128 7.46964 5.87867 6.90703C5.31606 6.34442 4.99999 5.58136 4.99999 4.78571ZM2.50066 14.189C2.52314 12.7454 3.11242 11.3684 4.1413 10.3554C5.17018 9.34244 6.55613 8.77467 7.99999 8.77467C9.44385 8.77467 10.8298 9.34244 11.8587 10.3554C12.8876 11.3684 13.4768 12.7454 13.4993 14.189C13.5011 14.2862 13.4744 14.3818 13.4227 14.4641C13.3709 14.5464 13.2963 14.6118 13.208 14.6524C11.5741 15.4015 9.79743 15.7881 7.99999 15.7857C6.14266 15.7857 4.37799 15.3804 2.79199 14.6524C2.70365 14.6118 2.62904 14.5464 2.5773 14.4641C2.52556 14.3818 2.49893 14.2862 2.50066 14.189Z" fill="#9E9E9E"/>
</svg>
