<svg width="14" height="14" viewBox="0 0 14 14" fill="none" xmlns="http://www.w3.org/2000/svg">
<g clip-path="url(#clip0_187_1517)">
<path d="M9.70987 6.39723C9.97539 5.79121 10.1217 5.13974 10.1409 4.47839C10.1407 4.35319 10.133 4.22811 10.1179 4.10382C10.0247 3.32488 9.64331 2.60904 9.04878 2.0972C8.45426 1.58536 7.68967 1.3146 6.90553 1.33822C6.12139 1.36183 5.37448 1.67812 4.81184 2.22481C4.2492 2.7715 3.91157 3.509 3.86541 4.29214C3.86123 4.35284 3.85913 4.41561 3.85913 4.47839C3.85913 6.21309 5.26533 8.8748 7.00003 8.8748C7.65708 8.8748 8.26391 8.49605 8.76613 7.92897C8.41864 7.99614 8.06541 8.02908 7.7115 8.02733H7.69265C7.48656 8.16325 7.24679 8.23931 7.00003 8.24704C5.78636 8.24704 4.48689 6.03523 4.48689 4.47839C4.48689 4.42607 4.48899 4.37375 4.49318 4.32144C5.66196 4.32233 6.80956 4.00941 7.81612 3.41537C8.33742 3.68446 8.89282 3.88156 9.46712 4.00128C9.49838 4.15838 9.51381 4.31821 9.51317 4.47839C9.51317 5.18357 9.24531 6.02268 8.84146 6.72995C9.14143 6.64867 9.43238 6.53719 9.70987 6.39723Z" fill="#9E9E9E"/>
<path d="M2.9172 4.73991C2.95155 4.73991 2.98557 4.73315 3.0173 4.72C3.04904 4.70686 3.07788 4.68759 3.10217 4.6633C3.12645 4.63901 3.14572 4.61018 3.15886 4.57844C3.17201 4.54671 3.17877 4.51269 3.17877 4.47834C3.17877 4.39915 3.18071 4.32181 3.18664 4.24069C3.2323 3.50302 3.49101 2.79444 3.9314 2.20089C4.3718 1.60735 4.97495 1.15433 5.66771 0.896794C6.36047 0.639254 7.11307 0.588253 7.83424 0.749976C8.55541 0.9117 9.21417 1.2792 9.73061 1.80791C10.3167 2.4104 10.6898 3.18796 10.7931 4.02213C10.8109 4.17356 10.8201 4.32587 10.8207 4.47834C10.8196 4.72746 10.7978 4.97606 10.7554 5.22156L10.7146 5.4635L10.9533 5.5198C11.0951 5.55333 11.2212 5.63396 11.3111 5.74849C11.4011 5.86303 11.4495 6.00469 11.4485 6.15032C11.4486 6.32257 11.3803 6.48781 11.2587 6.60981C11.1371 6.73181 10.9721 6.80059 10.7999 6.80107C10.6323 6.80216 10.4711 6.73671 10.3517 6.6191L10.2126 6.48177L10.0414 6.57629C9.24876 7.02745 8.34178 7.23782 7.43143 7.18166C7.38187 7.08758 7.30308 7.01216 7.20692 6.96676C7.11077 6.92136 7.00247 6.90844 6.89833 6.92995C6.7942 6.95146 6.69987 7.00623 6.62958 7.08601C6.55928 7.16579 6.51681 7.26625 6.50858 7.37227C6.50034 7.47828 6.52679 7.5841 6.58392 7.67377C6.64106 7.76345 6.72579 7.83213 6.82536 7.86946C6.92492 7.90679 7.03392 7.91075 7.13593 7.88074C7.23795 7.85073 7.32744 7.78838 7.39093 7.70309C7.49874 7.70857 7.60559 7.71247 7.71042 7.71247C8.55594 7.71814 9.38967 7.51403 10.137 7.11842C10.3316 7.25327 10.563 7.3251 10.7999 7.3242C11.066 7.32368 11.324 7.23278 11.5317 7.0664C11.7393 6.90003 11.8843 6.66804 11.9428 6.40846C12.0014 6.14889 11.97 5.87713 11.8539 5.63772C11.7377 5.39831 11.5437 5.20546 11.3036 5.09077C11.3299 4.88768 11.3434 4.68312 11.3439 4.47833C11.3432 4.30593 11.3329 4.1337 11.3129 3.96245C11.1963 3.01267 10.7718 2.12725 10.1042 1.44171C9.5171 0.840861 8.76835 0.423199 7.94868 0.239356C7.129 0.0555119 6.2736 0.11338 5.48615 0.405946C4.69871 0.698511 4.01303 1.21321 3.51224 1.88766C3.01145 2.5621 2.71706 3.36733 2.66473 4.20574C2.65799 4.29586 2.65564 4.38608 2.65564 4.47834C2.65564 4.51269 2.6624 4.5467 2.67554 4.57844C2.68869 4.61018 2.70795 4.63901 2.73224 4.6633C2.75653 4.68759 2.78537 4.70686 2.8171 4.72C2.84884 4.73315 2.88285 4.73991 2.9172 4.73991Z" fill="#9E9E9E"/>
<path d="M12.9268 11.5652C12.7478 10.9089 12.419 10.5492 11.7634 10.3469C11.1662 10.1467 9.32361 9.49928 8.79071 9.29205C8.36561 10.0776 7.74984 10.7436 7.00002 11.2289C6.2502 10.7436 5.63443 10.0776 5.20933 9.29205C4.67642 9.49928 2.83387 10.1467 2.23663 10.3469C1.58099 10.5492 1.25222 10.9089 1.07324 11.5652C0.870752 12.3078 0.834534 13.0997 0.834534 13.8657H13.1655C13.1655 13.0997 13.1293 12.3078 12.9268 11.5652ZM11.5725 12.5306H9.86805C9.79271 12.5306 9.72045 12.5006 9.66718 12.4474C9.6139 12.3941 9.58397 12.3218 9.58397 12.2465C9.58397 12.1711 9.6139 12.0989 9.66718 12.0456C9.72045 11.9923 9.79271 11.9624 9.86805 11.9624H11.5725C11.6479 11.9624 11.7201 11.9923 11.7734 12.0456C11.8267 12.0989 11.8566 12.1711 11.8566 12.2465C11.8566 12.3218 11.8267 12.3941 11.7734 12.4474C11.7201 12.5006 11.6479 12.5306 11.5725 12.5306Z" fill="#9E9E9E"/>
<path d="M5.5109 4.84454C5.44153 4.84454 5.37499 4.8721 5.32594 4.92116C5.27689 4.97021 5.24933 5.03674 5.24933 5.10611C5.24933 5.17549 5.27689 5.24202 5.32594 5.29107C5.37499 5.34013 5.44153 5.36768 5.5109 5.36768H6.14633C6.2157 5.36768 6.28223 5.34013 6.33129 5.29107C6.38034 5.24202 6.4079 5.17549 6.4079 5.10611C6.4079 5.03674 6.38034 4.97021 6.33129 4.92116C6.28223 4.8721 6.2157 4.84454 6.14633 4.84454H5.5109Z" fill="#9E9E9E"/>
<path d="M7.85367 4.84454C7.7843 4.84454 7.71777 4.8721 7.66871 4.92116C7.61966 4.97021 7.5921 5.03674 7.5921 5.10611C7.5921 5.17549 7.61966 5.24202 7.66871 5.29107C7.71777 5.34013 7.7843 5.36768 7.85367 5.36768H8.48909C8.55847 5.36768 8.625 5.34013 8.67405 5.29107C8.7231 5.24202 8.75066 5.17549 8.75066 5.10611C8.75066 5.03674 8.7231 4.97021 8.67405 4.92116C8.625 4.8721 8.55847 4.84454 8.48909 4.84454H7.85367Z" fill="#9E9E9E"/>
</g>
<defs>
<clipPath id="clip0_187_1517">
<rect width="14" height="14" fill="#9E9E9E"/>
</clipPath>
</defs>
</svg>
